<svg xmlns="http://www.w3.org/2000/svg" viewBox="0 0 256 256" width="20" height="20">
  <defs>
    <linearGradient id="grad1" x1="0%" y1="0%" x2="100%" y2="100%">
      <stop offset="0%" style="stop-color:#007ACC;stop-opacity:1" />
      <stop offset="100%" style="stop-color:#005A9E;stop-opacity:1" />
    </linearGradient>
  </defs>
  <rect width="256" height="256" rx="30" fill="url(#grad1)"/>
  
  <!-- Left bracket -->
  <path d="M85 128l-48 36a8 8 0 01-13-6.5V47.5a8 8 0 0113-6.5l48 36a8 8 0 010 12.5l-43 32.5 43 32.5a8 8 0 010 12.5z" fill="#ffffff"/>
  
  <!-- Right bracket -->
  <path d="M171 128l48 36a8 8 0 0013-6.5V47.5a8 8 0 00-13-6.5l-48 36a8 8 0 000 12.5l43 32.5-43 32.5a8 8 0 000 12.5z" fill="#ffffff"/>
  
  <!-- Dot -->
  <circle cx="128" cy="128" r="8" fill="#ffffff"/>
</svg>
